<?xml version="1.0" standalone="no"?>
<!DOCTYPE svg PUBLIC "-//W3C//DTD SVG 20010904//EN"
 "http://www.w3.org/TR/2001/REC-SVG-20010904/DTD/svg10.dtd">
<svg version="1.0" xmlns="http://www.w3.org/2000/svg"
 width="700.000000pt" height="700.000000pt" viewBox="0 0 700.000000 700.000000"
 preserveAspectRatio="xMidYMid meet">
<metadata>
Created by potrace 1.11, written by Peter Selinger 2001-2013
</metadata>
<g transform="translate(0.000000,700.000000) scale(0.100000,-0.100000)"
fill="#000000" stroke="none">
<path d="M3005 6664 c-247 -146 -517 -306 -600 -354 -82 -49 -530 -314 -995
-588 -648 -383 -850 -507 -867 -532 l-23 -33 0 -1721 c0 -1665 1 -1722 19
-1752 13 -22 85 -70 262 -174 134 -79 309 -183 389 -230 80 -47 600 -355 1156
-683 l1010 -597 144 0 144 0 1010 597 c556 328 1076 636 1156 683 80 47 255
151 389 230 177 104 249 152 262 174 18 30 19 87 19 1760 l0 1728 -37 36 c-21
19 -681 415 -1468 878 -1325 782 -1433 844 -1475 844 -41 0 -86 -24 -495 -266z
m1796 -780 c703 -416 1279 -759 1279 -764 0 -4 -147 -94 -326 -200 -276 -162
-330 -190 -348 -182 -11 5 -282 164 -601 352 -319 189 -595 349 -613 357 -44
18 -95 8 -131 -26 l-29 -27 -73 42 -73 43 -1 65 c0 59 -3 68 -30 95 -22 22
-813 498 -1013 610 -16 9 647 403 666 396 7 -3 589 -345 1293 -761z m-2194
-900 c527 -311 1108 -654 1290 -762 183 -108 329 -200 325 -204 -4 -3 -168
-102 -365 -218 l-357 -211 -1133 669 c-622 368 -1157 683 -1188 701 -118 66
-219 18 -219 -105 0 -42 4 -51 38 -81 20 -19 561 -344 1202 -722 l1165 -688 5
-1089 c5 -1034 6 -1091 23 -1118 44 -67 149 -73 204 -12 l33 36 0 1088 0 1088
359 212 c197 117 361 212 365 212 3 0 6 -213 6 -474 0 -271 4 -485 9 -499 25
-66 104 -101 169 -75 42 17 910 527 961 566 62 46 61 36 61 645 l0 554 325
191 c179 106 327 192 330 192 3 0 4 -687 3 -1527 l-3 -1527 -55 -32 c-30 -18
-611 -361 -1290 -762 l-1235 -730 -5 233 c-5 217 -6 236 -26 262 -45 60 -140
62 -198 4 l-31 -31 -3 -235 c-2 -129 -5 -235 -7 -235 -2 0 -523 306 -1157 681
-634 375 -1215 718 -1290 762 l-138 81 0 1611 0 1610 427 253 c235 138 430
252 434 252 5 0 439 -255 966 -566z"/>
</g>
</svg>
