<svg xmlns="http://www.w3.org/2000/svg" width="30" height="30" viewBox="0 0 30 30" fill="none">
<g id="box 1" clip-path="url(#clip0)">
<g id="Group">
<path id="Vector" d="M14.9999 0.833496L27.2221 8.05568V22.5001L14.9999 29.7222L2.77777 22.5001V8.05568L14.9999 0.833496Z" fill="#F9CD74"/>
<path id="Vector_2" d="M27.2221 8.05568L14.9999 15.2779L2.77777 8.05568L14.9999 0.833496L27.2221 8.05568Z" fill="#F9B659"/>
<path id="Vector_3" d="M14.9999 15.2779V29.7222L27.2221 22.5V8.05566L14.9999 15.2779Z" fill="#EB9850"/>
<path id="Vector_4" d="M23.2405 10.4085V15.4084L19.2594 17.7612V12.7612L7.03723 5.53905L11.0183 3.18628L23.2405 10.4085Z" fill="#6B968B"/>
<path id="Vector_5" d="M23.2404 10.4084V15.4084L19.2593 17.7612V12.7612L23.2404 10.4084Z" fill="#608778"/>
<g id="Group_2">
<path id="Vector_6" d="M4.99995 21.9445C4.69315 21.9445 4.4444 21.6958 4.4444 21.389V19.1668C4.4444 18.86 4.69315 18.6112 4.99995 18.6112C5.30675 18.6112 5.5555 18.86 5.5555 19.1668V21.389C5.5555 21.6958 5.30675 21.9445 4.99995 21.9445Z" fill="#EB9850"/>
<path id="Vector_7" d="M7.22218 23.0556C6.91538 23.0556 6.66663 22.8069 6.66663 22.5001V20.2778C6.66663 19.971 6.91538 19.7223 7.22218 19.7223C7.52898 19.7223 7.77773 19.971 7.77773 20.2778V22.5001C7.77773 22.8069 7.52898 23.0556 7.22218 23.0556Z" fill="#EB9850"/>
</g>
</g>
<g id="Group_3">
<path id="Vector_8" d="M14.9999 15.8334C14.9005 15.8334 14.8028 15.8068 14.7171 15.7562L4.37552 9.64507C4.11135 9.48889 4.02378 9.14813 4.17996 8.88397C4.33614 8.6198 4.6769 8.53223 4.94107 8.68841L14.9999 14.6323L26.9393 7.57675C27.2035 7.42057 27.5442 7.50814 27.7004 7.7723C27.8566 8.03647 27.769 8.37723 27.5049 8.53341L15.2827 15.7556C15.1971 15.8064 15.0994 15.8332 14.9999 15.8334Z" fill="#294F61"/>
<path id="Vector_9" d="M15 25.2777C14.6931 25.2777 14.4444 25.029 14.4444 24.7222V15.2778C14.4444 14.971 14.6931 14.7222 15 14.7222C15.3068 14.7222 15.5555 14.971 15.5555 15.2778V24.7222C15.5555 25.029 15.3068 25.2777 15 25.2777Z" fill="#294F61"/>
<path id="Vector_10" d="M15 30.2777C14.6931 30.2777 14.4444 30.029 14.4444 29.7222V26.9444C14.4444 26.6376 14.6931 26.3889 15 26.3889C15.3068 26.3889 15.5555 26.6376 15.5555 26.9444V29.7222C15.5555 30.029 15.3068 30.2777 15 30.2777Z" fill="#294F61"/>
<path id="Vector_11" d="M16.111 6.75065C16.0117 6.75058 15.9143 6.72391 15.8288 6.67343L10.7355 3.66677C10.4713 3.51059 10.3838 3.16983 10.5399 2.90567C10.6961 2.6415 11.0369 2.55393 11.3011 2.71011L16.3938 5.71954C16.6577 5.87614 16.7446 6.21697 16.5881 6.48079C16.488 6.6494 16.3066 6.7528 16.1105 6.75287L16.111 6.75065Z" fill="#294F61"/>
<path id="Vector_12" d="M19.2594 18.3167C18.9526 18.3167 18.7038 18.0679 18.7038 17.7611V13.0784L6.75442 6.0173C6.49026 5.86112 6.40269 5.52036 6.55887 5.25619C6.71505 4.99203 7.05581 4.90446 7.31997 5.06064L19.5421 12.2828C19.7112 12.3828 19.815 12.5647 19.8149 12.7612V16.7878L22.6849 15.0917V10.7256L17.4949 7.6584C17.2308 7.50222 17.1432 7.16146 17.2994 6.8973C17.4556 6.63313 17.7963 6.54556 18.0605 6.70174L23.5232 9.93006C23.6923 10.0301 23.7961 10.2119 23.796 10.4084V15.4084C23.7961 15.6048 23.6923 15.7867 23.5232 15.8867L19.5421 18.2395C19.4564 18.29 19.3588 18.3167 19.2594 18.3167Z" fill="#294F61"/>
<path id="Vector_13" d="M14.9999 30.2778C14.9005 30.2778 14.8028 30.2512 14.7172 30.2005L2.49501 22.9783C2.32591 22.8783 2.22216 22.6965 2.22223 22.5V8.05563C2.22216 7.85918 2.32591 7.6773 2.49501 7.5773L14.7172 0.355114C14.8916 0.25199 15.1083 0.25199 15.2827 0.355114L27.5049 7.5773C27.674 7.6773 27.7777 7.85918 27.7777 8.05563V22.5C27.7777 22.6965 27.674 22.8783 27.5049 22.9783L15.2827 30.2005C15.197 30.2511 15.0994 30.2778 14.9999 30.2778ZM3.33333 22.1828L14.9999 29.0766L26.6666 22.1828V8.37285L14.9999 1.479L3.33333 8.37285V22.1828Z" fill="#294F61"/>
</g>
</g>
<defs>
<clipPath id="clip0">
<rect width="30" height="30" fill="white"/>
</clipPath>
</defs>
</svg>