<svg width="72" height="72" viewBox="0 0 72 72" fill="none" xmlns="http://www.w3.org/2000/svg">
<g id="Mask Group">
<mask id="mask0" mask-type="alpha" maskUnits="userSpaceOnUse" x="0" y="0" width="72" height="72">
<path id="Rectangle 10" d="M0 12.63C0 5.65465 5.65464 0 12.63 0H59.37C66.3454 0 72 5.65464 72 12.63V59.37C72 66.3454 66.3454 72 59.37 72H12.63C5.65465 72 0 66.3454 0 59.37V12.63Z" fill="#C4C4C4"/>
</mask>
<g mask="url(#mask0)">
<rect id="Rectangle 2" width="72" height="72" rx="12.6316" fill="#89A4F7"/>
<g id="Mask Group_2">
<g id="logo-black">
<g id="Vector 1">
<path d="M20.5082 42.1606V34.6939C20.5082 32.9929 21.8871 31.619 23.5882 31.6294C25.2892 31.6398 26.6682 33.024 26.6682 34.725V40.4103C26.6682 41.3312 26.6682 41.5428 26.9797 42.2568C28.084 44.7876 31.6756 45.0621 32.8349 42.3168C32.9459 42.0541 32.9837 42.0155 32.9837 41.7303V41.6367C32.9837 40.1914 34.1251 39.0329 35.5704 39.0399C35.7648 39.0408 35.9616 39.0419 36.1577 39.043C37.6947 39.052 39.2682 40.6236 39.2682 42.1606C38.9851 52.9244 21.518 52.7827 20.5082 42.1606Z" fill="white"/>
<path d="M32.9837 42.1298V32.8586V16.1364C32.9837 14.4354 34.3627 13.0615 36.0637 13.0719C37.7647 13.0824 39.1437 14.4665 39.1437 16.1675V32.8897V40.3795C39.1437 41.5953 39.2928 42.5626 40.1965 43.4009C41.9154 44.9956 44.3495 44.6239 45.3105 42.3483C45.4214 42.0855 45.4593 41.9847 45.4593 41.6995V41.6058C45.4593 40.1606 46.6007 39.002 48.046 39.009C48.2404 39.01 48.4371 39.0111 48.6333 39.0122C50.1703 39.0211 51.7437 40.5928 51.7437 42.1298C51.4607 52.8935 33.9935 52.7519 32.9837 42.1298Z" fill="white"/>
<path d="M8.00275 42.1201V32.849V16.0645C8.00275 14.3635 9.38172 12.9896 11.0827 13.0001C12.7838 13.0105 14.225 14.3946 14.225 16.0957V32.8801V40.3698C14.225 41.2908 14.225 41.7512 14.5365 42.4653C15.6191 44.9463 19.291 44.7354 20.3295 42.2764C20.4405 42.0137 20.4783 41.975 20.4783 41.6898V41.5962C20.4783 40.1509 21.6197 38.9924 23.065 38.9994C23.2594 39.0003 23.4561 39.0014 23.6523 39.0025C25.1893 39.0115 26.7627 40.5831 26.7627 42.1201C26.4797 52.8839 9.01256 52.7423 8.00275 42.1201Z" fill="white"/>
</g>
<path id="Exclude" fill-rule="evenodd" clip-rule="evenodd" d="M54.6694 50.2711C59.8241 50.2711 64.0027 46.0924 64.0027 40.9378C64.0027 35.7831 59.8241 31.6044 54.6694 31.6044C49.5148 31.6044 45.3361 35.7831 45.3361 40.9378C45.3361 46.0924 49.5148 50.2711 54.6694 50.2711ZM54.6694 44.0489C56.3876 44.0489 57.7805 42.656 57.7805 40.9378C57.7805 39.2196 56.3876 37.8267 54.6694 37.8267C52.9512 37.8267 51.5583 39.2196 51.5583 40.9378C51.5583 42.656 52.9512 44.0489 54.6694 44.0489Z" fill="white"/>
<ellipse id="Ellipse 3" cx="23.5571" cy="22.2823" rx="3.11111" ry="3.11111" fill="white"/>
</g>
<mask id="mask1" mask-type="alpha" maskUnits="userSpaceOnUse" x="0" y="29" width="80" height="31">
<path id="Vector 2" d="M28.7742 39.2361C23.4049 38.1998 19.5443 33.4726 19.5443 33.4726C19.5443 33.4726 13.1149 28.3153 7.23782 29.0767C3.80489 29.5214 0.16156 30.2055 0.16156 30.2055V58.7562C-0.0500565 59.128 -0.0576401 59.5414 0.16156 60V58.7562C3.64748 52.6318 62.4981 57.7988 75.0295 58.3068C81.3709 58.5638 81.1732 53.523 77.0873 50.7305C75.1496 49.4062 73.9524 50.0947 72.6842 49.4823C68.9397 47.674 69.486 47.0595 66.2233 45.5314C62.1261 43.6125 56.5789 44.3545 53.9067 42.9482C50.4193 41.1128 46.9023 38.6031 42.619 37.9879C37.1716 37.2055 34.1103 40.2661 28.7742 39.2361Z" fill="#C4C4C4"/>
</mask>
<g mask="url(#mask1)">
<g id="logo-black_2" filter="url(#filter0_d)">
<g id="Vector 1_2">
<path d="M20.5082 42.1606V34.6939C20.5082 32.9929 21.8871 31.619 23.5882 31.6294C25.2892 31.6398 26.6682 33.024 26.6682 34.725V40.4103C26.6682 41.3312 26.6682 41.5428 26.9797 42.2568C28.084 44.7876 31.6756 45.0621 32.8349 42.3168C32.9459 42.0541 32.9837 42.0155 32.9837 41.7303V41.6367C32.9837 40.1914 34.1251 39.0329 35.5704 39.0399C35.7648 39.0408 35.9616 39.0419 36.1577 39.043C37.6947 39.052 39.2682 40.6236 39.2682 42.1606C38.9851 52.9244 21.518 52.7827 20.5082 42.1606Z" fill="#111111"/>
<path d="M32.9837 42.1298V32.8586V16.1364C32.9837 14.4354 34.3627 13.0615 36.0637 13.0719C37.7647 13.0824 39.1437 14.4665 39.1437 16.1675V32.8897V40.3795C39.1437 41.5953 39.2928 42.5626 40.1965 43.4009C41.9154 44.9956 44.3495 44.6239 45.3105 42.3483C45.4214 42.0855 45.4593 41.9847 45.4593 41.6995V41.6058C45.4593 40.1606 46.6007 39.002 48.046 39.009C48.2404 39.01 48.4371 39.0111 48.6333 39.0122C50.1703 39.0211 51.7437 40.5928 51.7437 42.1298C51.4607 52.8935 33.9935 52.7519 32.9837 42.1298Z" fill="#111111"/>
<path d="M8.00275 42.1201V32.849V16.0645C8.00275 14.3635 9.38172 12.9896 11.0827 13.0001C12.7838 13.0105 14.225 14.3946 14.225 16.0957V32.8801V40.3698C14.225 41.2908 14.225 41.7512 14.5365 42.4653C15.6191 44.9463 19.291 44.7354 20.3295 42.2764C20.4405 42.0137 20.4783 41.975 20.4783 41.6898V41.5962C20.4783 40.1509 21.6197 38.9924 23.065 38.9994C23.2594 39.0003 23.4561 39.0014 23.6523 39.0025C25.1893 39.0115 26.7627 40.5831 26.7627 42.1201C26.4797 52.8839 9.01256 52.7423 8.00275 42.1201Z" fill="#111111"/>
</g>
<path id="Exclude_2" fill-rule="evenodd" clip-rule="evenodd" d="M54.6694 50.2711C59.8241 50.2711 64.0027 46.0924 64.0027 40.9378C64.0027 35.7831 59.8241 31.6044 54.6694 31.6044C49.5148 31.6044 45.3361 35.7831 45.3361 40.9378C45.3361 46.0924 49.5148 50.2711 54.6694 50.2711ZM54.6694 44.0489C56.3876 44.0489 57.7805 42.656 57.7805 40.9378C57.7805 39.2196 56.3876 37.8267 54.6694 37.8267C52.9512 37.8267 51.5583 39.2196 51.5583 40.9378C51.5583 42.656 52.9512 44.0489 54.6694 44.0489Z" fill="#111111"/>
</g>
</g>
</g>
</g>
</g>
<defs>
<filter id="filter0_d" x="4.00275" y="13" width="64" height="45.2711" filterUnits="userSpaceOnUse" color-interpolation-filters="sRGB">
<feFlood flood-opacity="0" result="BackgroundImageFix"/>
<feColorMatrix in="SourceAlpha" type="matrix" values="0 0 0 0 0 0 0 0 0 0 0 0 0 0 0 0 0 0 127 0"/>
<feOffset dy="4"/>
<feGaussianBlur stdDeviation="2"/>
<feColorMatrix type="matrix" values="0 0 0 0 0 0 0 0 0 0 0 0 0 0 0 0 0 0 0.25 0"/>
<feBlend mode="normal" in2="BackgroundImageFix" result="effect1_dropShadow"/>
<feBlend mode="normal" in="SourceGraphic" in2="effect1_dropShadow" result="shape"/>
</filter>
</defs>
</svg>
