<svg width="76" height="50" viewBox="0 0 76 50" fill="none" xmlns="http://www.w3.org/2000/svg">
<g id="logo-black">
<g id="Vector 1">
<path d="M16.7763 39.1195V29.1028C16.7763 26.8208 18.6262 24.9778 20.9082 24.9918C23.1901 25.0057 25.0401 26.8626 25.0401 29.1446V36.7715C25.0401 38.007 25.0401 38.2908 25.458 39.2487C26.9394 42.6438 31.7576 43.012 33.3129 39.3292C33.4618 38.9767 33.5125 38.9249 33.5125 38.5423V38.4167C33.5125 36.4778 35.0437 34.9236 36.9826 34.933C37.2434 34.9343 37.5073 34.9357 37.7705 34.9373C39.8324 34.9493 41.9432 37.0576 41.9432 39.1195C41.5635 53.5594 18.131 53.3694 16.7763 39.1195Z" fill="#111111"/>
<path d="M33.5125 39.0782V26.6408V4.20758C33.5125 1.92557 35.3624 0.0825259 37.6444 0.0965049C39.9264 0.110484 41.7763 1.96731 41.7763 4.24932V26.6825V36.7302C41.7763 38.3612 41.9763 39.6588 43.1886 40.7835C45.4946 42.9228 48.7599 42.4241 50.0492 39.3713C50.198 39.0189 50.2487 38.8835 50.2487 38.501V38.3753C50.2487 36.4365 51.78 34.8823 53.7188 34.8917C53.9797 34.893 54.2436 34.8944 54.5067 34.8959C56.5686 34.9079 58.6795 37.0163 58.6795 39.0782C58.2998 53.518 34.8672 53.3281 33.5125 39.0782Z" fill="#111111"/>
<path d="M0 39.0653V26.6278V4.11115C0 1.82914 1.84992 -0.0138999 4.13189 7.89966e-05C6.41385 0.0140579 8.34724 1.87088 8.34724 4.15288V26.6696V36.7172C8.34724 37.9527 8.34725 38.5704 8.76521 39.5283C10.2175 42.8567 15.1435 42.5737 16.5366 39.2749C16.6855 38.9224 16.7362 38.8706 16.7362 38.488V38.3624C16.7362 36.4235 18.2675 34.8693 20.2063 34.8787C20.4671 34.88 20.7311 34.8814 20.9942 34.883C23.0561 34.895 25.1669 37.0033 25.1669 39.0653C24.7872 53.5051 1.35469 53.3151 0 39.0653Z" fill="#111111"/>
</g>
<path id="Exclude" fill-rule="evenodd" clip-rule="evenodd" d="M62.6044 50C69.5194 50 75.1252 44.3942 75.1252 37.4791C75.1252 30.564 69.5194 24.9583 62.6044 24.9583C55.6893 24.9583 50.0835 30.564 50.0835 37.4791C50.0835 44.3942 55.6893 50 62.6044 50ZM62.6044 41.6527C64.9094 41.6527 66.778 39.7842 66.778 37.4791C66.778 35.1741 64.9094 33.3055 62.6044 33.3055C60.2993 33.3055 58.4307 35.1741 58.4307 37.4791C58.4307 39.7842 60.2993 41.6527 62.6044 41.6527Z" fill="#111111"/>
<ellipse id="Ellipse 3" cx="20.8665" cy="12.4525" rx="4.17362" ry="4.17362" fill="#111111"/>
</g>
</svg>
