<?xml version="1.0" standalone="no"?>
<!DOCTYPE svg PUBLIC "-//W3C//DTD SVG 20010904//EN"
 "http://www.w3.org/TR/2001/REC-SVG-20010904/DTD/svg10.dtd">
<svg version="1.0" xmlns="http://www.w3.org/2000/svg"
 width="1216.000000pt" height="1216.000000pt" viewBox="0 0 1216.000000 1216.000000"
 preserveAspectRatio="xMidYMid meet">
<metadata>
Created by potrace 1.14, written by Peter Selinger 2001-2017
</metadata>
<g transform="translate(0.000000,1216.000000) scale(0.100000,-0.100000)"
fill="#000000" stroke="none">
<path d="M550 10070 c-8 -5 -17 -7 -21 -4 -4 2 -29 -3 -56 -12 -26 -9 -52 -17
-58 -18 -17 -3 -79 -37 -97 -54 -10 -8 -18 -12 -18 -9 0 12 -43 -25 -116 -100
-72 -73 -142 -192 -160 -273 -4 -19 -10 -42 -13 -50 -8 -23 -12 -5800 -4
-5814 4 -6 8 -22 10 -36 1 -14 7 -47 13 -75 5 -27 13 -61 16 -75 2 -14 8 -34
11 -45 4 -11 8 -26 10 -33 7 -27 10 -38 21 -65 7 -16 12 -32 12 -37 0 -22 122
-274 171 -354 26 -42 78 -113 139 -190 48 -61 219 -219 305 -282 55 -41 105
-78 112 -84 7 -5 15 -10 18 -10 3 0 23 -11 44 -24 106 -68 320 -163 446 -200
33 -10 71 -22 85 -27 32 -10 96 -27 135 -33 17 -3 41 -8 55 -11 14 -3 39 -8
55 -10 17 -3 41 -7 55 -10 99 -19 550 -28 640 -12 19 4 58 9 86 12 28 3 73 12
100 19 27 7 57 12 67 10 9 -1 17 2 17 7 0 6 6 9 13 8 14 -3 51 6 132 33 33 11
67 21 75 23 28 6 225 93 285 125 33 18 106 64 163 101 l103 68 87 -57 c115
-75 112 -73 227 -131 101 -50 242 -109 273 -114 9 -2 27 -9 40 -15 12 -7 22
-10 22 -8 0 3 18 -1 39 -9 22 -7 56 -16 76 -19 20 -4 46 -11 58 -18 12 -6 23
-10 25 -9 2 2 101 -12 172 -25 142 -26 557 -26 689 1 12 2 42 7 65 10 22 3 58
9 79 14 20 5 37 7 37 4 0 -3 6 0 14 6 8 6 18 11 22 9 5 -1 36 6 69 16 33 10
67 19 76 21 8 2 33 11 55 20 21 9 44 18 49 19 20 3 83 30 175 74 85 40 316
183 330 203 3 5 21 -2 40 -14 18 -12 48 -30 64 -41 17 -10 33 -21 36 -25 9
-11 190 -105 284 -146 36 -16 251 -94 261 -95 3 0 10 -2 17 -4 12 -4 86 -22
133 -32 45 -10 192 -36 220 -39 150 -14 218 -18 330 -17 124 0 156 2 285 18
57 7 85 11 85 14 0 1 17 3 39 5 21 2 84 16 140 31 55 14 106 27 113 28 7 1 16
5 19 9 4 4 13 7 20 7 7 0 25 5 41 12 15 6 30 12 33 12 18 4 157 63 210 90 98
50 249 143 285 177 20 18 21 18 50 -7 17 -14 42 -33 58 -42 15 -9 27 -20 27
-24 0 -4 4 -8 9 -8 5 0 35 -17 67 -39 133 -88 325 -176 494 -226 3 -1 12 -4
20 -7 29 -12 182 -45 245 -53 17 -3 59 -9 95 -14 65 -9 413 -7 460 2 14 3 43
8 65 11 95 12 320 69 341 87 8 6 14 9 14 6 0 -3 28 6 63 19 34 14 73 30 87 35
14 6 27 10 29 9 2 -1 7 3 11 10 4 6 13 12 21 13 8 2 19 5 24 8 6 4 37 21 70
39 58 32 216 134 252 164 10 8 37 30 60 49 53 43 139 124 172 161 14 16 36 39
47 51 32 32 184 234 192 254 3 9 19 35 34 58 56 83 212 443 192 443 -2 0 0 8
5 18 6 11 12 30 15 43 3 13 14 67 26 119 28 131 33 190 34 380 1 156 -5 257
-19 325 -4 17 -8 44 -10 60 -7 69 -91 355 -108 366 -5 3 -8 9 -8 13 1 15 -81
194 -111 241 -11 17 -25 39 -73 116 -91 148 -265 335 -447 482 -25 20 -49 37
-53 37 -3 0 -15 9 -27 20 -11 10 -36 26 -54 35 -18 8 -36 20 -39 25 -6 10 -7
10 -172 93 -62 32 -117 57 -123 57 -6 0 -30 9 -52 20 -23 11 -47 20 -54 20 -7
0 -25 5 -41 12 -15 6 -32 12 -38 13 -5 2 -30 8 -55 15 -50 13 -73 19 -110 26
-14 2 -36 7 -50 10 -128 32 -469 36 -650 9 -84 -13 -96 -15 -115 -19 -11 -3
-35 -9 -53 -15 -18 -5 -36 -10 -40 -10 -4 -1 -32 -8 -62 -17 -30 -9 -62 -17
-70 -19 -16 -4 -73 -26 -135 -54 -22 -10 -51 -22 -65 -26 -14 -4 -41 -18 -61
-31 -20 -13 -40 -20 -43 -17 -3 4 -6 1 -6 -5 0 -7 -5 -12 -11 -12 -13 0 -183
-105 -204 -126 -7 -8 -18 -14 -24 -14 -6 0 -11 -3 -11 -7 0 -5 -17 -19 -37
-33 -140 -95 -363 -345 -473 -530 -25 -41 -48 -76 -52 -78 -5 -2 -8 -8 -8 -13
0 -5 -14 -37 -31 -71 -44 -92 -109 -255 -109 -278 0 -10 -4 -21 -9 -24 -9 -6
-27 -83 -23 -98 1 -5 -2 -8 -7 -8 -4 0 -8 -8 -8 -17 1 -10 -4 -43 -11 -73 -33
-149 -44 -353 -31 -585 3 -61 0 -78 -25 -130 -141 -295 -396 -443 -689 -401
-198 28 -434 192 -527 366 -19 36 -35 67 -36 70 0 3 -3 12 -7 20 -7 19 -29
100 -32 120 -1 8 -6 40 -10 70 -5 30 -9 1275 -10 2765 -2 1491 -5 2721 -9
2735 -3 14 -9 41 -12 60 -9 51 -52 147 -96 212 -99 149 -285 266 -453 285 -59
7 -172 6 -206 -1 -153 -33 -267 -94 -361 -192 -49 -51 -78 -89 -78 -101 0 -7
-4 -13 -9 -13 -10 0 -55 -99 -72 -160 -7 -25 -15 -52 -17 -60 -3 -8 -6 -1288
-7 -2845 l-3 -2830 -32 -69 c-64 -134 -172 -268 -249 -307 -14 -8 -30 -20 -34
-26 -4 -7 -15 -13 -23 -13 -8 0 -22 -4 -32 -9 -138 -70 -323 -80 -487 -26 -43
14 -116 46 -125 55 -3 3 -18 13 -35 22 -114 64 -230 210 -292 368 -45 117 -46
127 -48 914 -1 413 -5 760 -8 771 -23 89 -32 115 -50 155 -32 69 -89 150 -143
202 -51 49 -118 98 -134 98 -6 0 -10 4 -10 9 0 5 -8 11 -17 14 -10 3 -49 17
-88 31 -57 20 -155 38 -210 38 -67 0 -170 -18 -225 -39 -8 -4 -17 -7 -20 -7
-16 -4 -109 -53 -133 -70 -60 -45 -135 -124 -175 -183 -23 -34 -42 -66 -42
-70 0 -4 -6 -20 -14 -35 -8 -14 -22 -57 -32 -95 -16 -62 -18 -137 -20 -828 -1
-418 -5 -793 -7 -832 -4 -59 -12 -88 -43 -150 -40 -80 -46 -90 -76 -124 -10
-10 -18 -22 -18 -25 0 -9 -69 -71 -125 -113 -62 -46 -188 -102 -260 -116 -16
-3 -41 -8 -55 -10 -39 -8 -161 -8 -200 0 -19 4 -42 8 -50 9 -27 4 -105 28
-115 36 -5 4 -21 11 -34 15 -55 17 -196 136 -239 201 -53 81 -105 221 -118
314 -4 30 -8 1295 -9 2810 0 2181 -3 2760 -13 2778 -7 12 -10 22 -8 22 17 0
-66 182 -101 220 -13 14 -23 28 -23 32 0 10 -75 84 -120 117 -19 14 -37 28
-40 31 -10 11 -136 69 -165 76 -16 4 -34 9 -40 12 -25 15 -255 25 -275 12z
m9615 -5334 c17 -3 48 -13 70 -22 22 -10 46 -19 53 -20 59 -11 221 -147 281
-236 32 -48 94 -178 85 -178 -2 0 -1 -8 5 -17 18 -35 36 -263 21 -263 -3 0 -6
-14 -7 -32 -4 -59 -73 -232 -102 -258 -4 -3 -22 -26 -41 -52 -19 -26 -43 -50
-53 -54 -10 -3 -16 -8 -13 -12 8 -8 -77 -68 -149 -104 -148 -76 -305 -90 -492
-45 -36 9 -165 74 -198 99 -121 94 -227 245 -239 342 -3 18 -12 62 -21 97 -30
115 -1 315 62 417 56 91 114 160 185 218 24 19 138 83 138 77 0 -3 6 -1 13 5
7 6 44 20 82 31 55 15 93 19 180 16 61 -2 124 -6 140 -9z"/>
<path d="M3287 8753 c-2 -1 -20 -3 -41 -5 -20 -1 -40 -6 -42 -10 -3 -5 -9 -6
-14 -3 -4 3 -27 -2 -51 -11 -24 -9 -50 -17 -57 -18 -7 -1 -18 -8 -24 -14 -7
-7 -17 -12 -23 -12 -7 0 -31 -13 -53 -30 -23 -16 -45 -30 -48 -30 -3 0 -35
-29 -70 -65 -35 -36 -62 -65 -58 -65 3 0 -1 -7 -8 -15 -25 -28 -33 -40 -55
-85 -124 -257 -84 -547 104 -750 63 -68 172 -150 200 -150 7 0 13 -5 13 -12 0
-6 3 -8 7 -5 3 4 17 0 30 -8 13 -9 23 -13 23 -11 0 3 19 -2 42 -10 23 -8 73
-17 110 -19 38 -2 73 -7 78 -10 6 -3 10 -3 10 2 0 4 17 7 37 7 21 -1 42 1 48
4 5 3 25 7 44 9 19 2 41 9 48 15 7 6 13 8 13 5 0 -3 21 4 48 15 188 83 345
266 388 453 23 99 23 237 0 325 -21 80 -79 201 -116 240 -16 17 -26 30 -23 30
3 0 -16 21 -43 46 -48 44 -156 121 -162 115 -2 -1 -13 4 -25 11 -23 15 -106
42 -167 54 -33 7 -158 12 -163 7z"/>
</g>
</svg>
